<svg xmlns="http://www.w3.org/2000/svg" xmlns:xlink="http://www.w3.org/1999/xlink" contentStyleType="text/css" data-diagram-type="DESCRIPTION" height="1912px" preserveAspectRatio="none" style="width:1732px;height:1912px;background:#FFFFFF;" version="1.1" viewBox="0 0 1732 1912" width="1732px" zoomAndPan="magnify"><?plantuml 1.2026.6?><defs/><g><g class="title" data-source-line="1"><text fill="#000000" font-family="Arial" font-size="14" font-weight="700" lengthAdjust="spacing" textLength="291.751" x="716.6245" y="23.1318">Workstream v0.1 Backend Component View</text></g><!--cluster backend--><g class="cluster" data-qualified-name="backend" data-source-line="34" id="ent0005"><rect fill="#F8FBFF" height="1541" rx="4" ry="4" style="stroke:#1C7ED6;stroke-width:1;" width="1493" x="225" y="44.0986"/><text fill="#0B2942" font-family="Arial" font-size="15" font-weight="700" lengthAdjust="spacing" textLength="260.8447" x="841.0776" y="60.1685">FastAPI Backend - Modular Monolith</text></g><!--cluster http_boundary--><g class="cluster" data-qualified-name="backend.http_boundary" data-source-line="35" id="ent0006"><rect fill="#EDF2FF" height="316" rx="4" ry="4" style="stroke:#1C7ED6;stroke-width:1;" width="596.5" x="257" y="1076.0986"/><text fill="#0B2942" font-family="Arial" font-size="15" font-weight="700" lengthAdjust="spacing" textLength="164.5825" x="472.9587" y="1092.1685">HTTP + Auth Boundary</text></g><!--cluster workflow_services--><g class="cluster" data-qualified-name="backend.workflow_services" data-source-line="42" id="ent0011"><rect fill="#E7F5FF" height="517" rx="4" ry="4" style="stroke:#1C7ED6;stroke-width:1;" width="704.5" x="640" y="452.0986"/><text fill="#0B2942" font-family="Arial" font-size="15" font-weight="700" lengthAdjust="spacing" textLength="133.3813" x="925.5593" y="468.1685">Workflow Services</text></g><!--cluster shared_rules--><g class="cluster" data-qualified-name="backend.shared_rules" data-source-line="51" id="ent0018"><rect fill="#EDF2FF" height="316" rx="4" ry="4" style="stroke:#1C7ED6;stroke-width:1;" width="216" x="1109" y="96.0986"/><text fill="#0B2942" font-family="Arial" font-size="15" font-weight="700" lengthAdjust="spacing" textLength="155.0391" x="1139.4805" y="112.1685">Shared Domain Rules</text></g><!--cluster persistence--><g class="cluster" data-qualified-name="backend.persistence" data-source-line="56" id="ent0021"><rect fill="#E6FCF5" height="201" rx="4" ry="4" style="stroke:#1C7ED6;stroke-width:1;" width="208" x="1113" y="1352.0986"/><text fill="#0B2942" font-family="Arial" font-size="15" font-weight="700" lengthAdjust="spacing" textLength="158.3936" x="1137.8032" y="1368.1685">Persistence Boundary</text></g><!--cluster ports--><g class="cluster" data-qualified-name="backend.ports" data-source-line="60" id="ent0023"><rect fill="#FFF3BF" height="303" rx="4" ry="4" style="stroke:#1C7ED6;stroke-width:1;" width="545" x="1141" y="1009.0986"/><text fill="#0B2942" font-family="Arial" font-size="15" font-weight="700" lengthAdjust="spacing" textLength="183.8159" x="1321.592" y="1025.1685">External Ports + Adapters</text></g><!--entity api_router--><g class="entity" data-qualified-name="backend.http_boundary.api_router" data-source-line="36" id="ent0007"><rect fill="#E7F5FF" height="96.9941" rx="4" ry="4" style="stroke:#1C7ED6;stroke-width:0.5;" width="139.6338" x="281" y="1271.5986"/><text fill="#0B2942" font-family="Arial" font-size="15" lengthAdjust="spacing" textLength="73.3667" x="291" y="1295.6685">API Router</text><line style="stroke:#1C7ED6;stroke-width:1;" x1="282" x2="419.6338" y1="1298.8472" y2="1298.8472"/><text fill="#0B2942" font-family="Arial" font-size="15" lengthAdjust="spacing" textLength="70.8472" x="291" y="1316.917">HTTP only</text><text fill="#0B2942" font-family="Arial" font-size="15" lengthAdjust="spacing" textLength="119.6338" x="291" y="1334.1655">request -&gt; service</text><text fill="#0B2942" font-family="Arial" font-size="15" lengthAdjust="spacing" textLength="115.4663" x="291" y="1351.4141">error -&gt; response</text></g><!--entity current_actor--><g class="entity" data-qualified-name="backend.http_boundary.current_actor" data-source-line="37" id="ent0008"><rect fill="#E7F5FF" height="96.9941" rx="4" ry="4" style="stroke:#1C7ED6;stroke-width:0.5;" width="129.6436" x="286" y="1139.5986"/><text fill="#0B2942" font-family="Arial" font-size="15" lengthAdjust="spacing" textLength="89.1943" x="296" y="1163.6685">Current Actor</text><text fill="#0B2942" font-family="Arial" font-size="15" lengthAdjust="spacing" textLength="84.2285" x="296" y="1180.917">Dependency</text><line style="stroke:#1C7ED6;stroke-width:1;" x1="287" x2="414.6436" y1="1184.0957" y2="1184.0957"/><text fill="#0B2942" font-family="Arial" font-size="15" lengthAdjust="spacing" textLength="109.6436" x="296" y="1202.1655">Verified token -&gt;</text><text fill="#0B2942" font-family="Arial" font-size="15" lengthAdjust="spacing" textLength="100.8911" x="296" y="1219.4141">canonical actor</text></g><!--entity permissions--><g class="entity" data-qualified-name="backend.http_boundary.permissions" data-source-line="38" id="ent0009"><rect fill="#E7F5FF" height="96.9941" rx="4" ry="4" style="stroke:#1C7ED6;stroke-width:0.5;" width="155.0732" x="674.5" y="1271.5986"/><text fill="#0B2942" font-family="Arial" font-size="15" lengthAdjust="spacing" textLength="74.187" x="684.5" y="1295.6685">Permission</text><text fill="#0B2942" font-family="Arial" font-size="15" lengthAdjust="spacing" textLength="51.687" x="684.5" y="1312.917">Policies</text><line style="stroke:#1C7ED6;stroke-width:1;" x1="675.5" x2="828.5732" y1="1316.0957" y2="1316.0957"/><text fill="#0B2942" font-family="Arial" font-size="15" lengthAdjust="spacing" textLength="125.9106" x="684.5" y="1334.1655">Live scoped grants</text><text fill="#0B2942" font-family="Arial" font-size="15" lengthAdjust="spacing" textLength="135.0732" x="684.5" y="1351.4141">and exact resources</text></g><!--entity schemas--><g class="entity" data-qualified-name="backend.http_boundary.schemas" data-source-line="39" id="ent0010"><rect fill="#E7F5FF" height="96.9941" rx="4" ry="4" style="stroke:#1C7ED6;stroke-width:0.5;" width="141.7432" x="681" y="1139.5986"/><text fill="#0B2942" font-family="Arial" font-size="15" lengthAdjust="spacing" textLength="57.5317" x="691" y="1163.6685">Pydantic</text><text fill="#0B2942" font-family="Arial" font-size="15" lengthAdjust="spacing" textLength="62.5269" x="691" y="1180.917">Schemas</text><line style="stroke:#1C7ED6;stroke-width:1;" x1="682" x2="821.7432" y1="1184.0957" y2="1184.0957"/><text fill="#0B2942" font-family="Arial" font-size="15" lengthAdjust="spacing" textLength="121.7432" x="691" y="1202.1655">Request/response</text><text fill="#0B2942" font-family="Arial" font-size="15" lengthAdjust="spacing" textLength="60.8569" x="691" y="1219.4141">contracts</text></g><!--entity project_service--><g class="entity" data-qualified-name="backend.workflow_services.project_service" data-source-line="43" id="ent0012"><rect fill="#E7F5FF" height="114.2427" rx="4" ry="4" style="stroke:#1C7ED6;stroke-width:0.5;" width="175.8887" x="664" y="812.0986"/><text fill="#0B2942" font-family="Arial" font-size="15" lengthAdjust="spacing" textLength="90.8789" x="674" y="836.1685">Project Guide</text><text fill="#0B2942" font-family="Arial" font-size="15" lengthAdjust="spacing" textLength="50.0171" x="674" y="853.417">Service</text><line style="stroke:#1C7ED6;stroke-width:1;" x1="665" x2="838.8887" y1="856.5957" y2="856.5957"/><text fill="#0B2942" font-family="Arial" font-size="15" lengthAdjust="spacing" textLength="110.8887" x="674" y="874.6655">Projects, guides,</text><text fill="#0B2942" font-family="Arial" font-size="15" lengthAdjust="spacing" textLength="155.8887" x="674" y="891.9141">checker/review/revision</text><text fill="#0B2942" font-family="Arial" font-size="15" lengthAdjust="spacing" textLength="50.0244" x="674" y="909.1626">policies</text></g><!--entity task_service--><g class="entity" data-qualified-name="backend.workflow_services.task_service" data-source-line="44" id="ent0013"><rect fill="#E7F5FF" height="131.4912" rx="4" ry="4" style="stroke:#1C7ED6;stroke-width:0.5;" width="146.7383" x="678.5" y="645.5986"/><text fill="#0B2942" font-family="Arial" font-size="15" lengthAdjust="spacing" textLength="81.709" x="688.5" y="669.6685">Task Queue</text><text fill="#0B2942" font-family="Arial" font-size="15" lengthAdjust="spacing" textLength="50.0171" x="688.5" y="686.917">Service</text><line style="stroke:#1C7ED6;stroke-width:1;" x1="679.5" x2="824.2383" y1="690.0957" y2="690.0957"/><text fill="#0B2942" font-family="Arial" font-size="15" lengthAdjust="spacing" textLength="94.1968" x="688.5" y="708.1655">Task contract,</text><text fill="#0B2942" font-family="Arial" font-size="15" lengthAdjust="spacing" textLength="126.7383" x="688.5" y="725.4141">screening, release,</text><text fill="#0B2942" font-family="Arial" font-size="15" lengthAdjust="spacing" textLength="124.2114" x="688.5" y="742.6626">claim, assignment,</text><text fill="#0B2942" font-family="Arial" font-size="15" lengthAdjust="spacing" textLength="82.5513" x="688.5" y="759.9111">state guards</text></g><!--entity submission_service--><g class="entity" data-qualified-name="backend.workflow_services.submission_service" data-source-line="45" id="ent0014"><rect fill="#E7F5FF" height="114.2427" rx="4" ry="4" style="stroke:#1C7ED6;stroke-width:0.5;" width="145.9033" x="679" y="496.0986"/><text fill="#0B2942" font-family="Arial" font-size="15" lengthAdjust="spacing" textLength="77.5342" x="689" y="520.1685">Submission</text><text fill="#0B2942" font-family="Arial" font-size="15" lengthAdjust="spacing" textLength="50.0171" x="689" y="537.417">Service</text><line style="stroke:#1C7ED6;stroke-width:1;" x1="680" x2="823.9033" y1="540.5957" y2="540.5957"/><text fill="#0B2942" font-family="Arial" font-size="15" lengthAdjust="spacing" textLength="125.9033" x="689" y="558.6655">Packets, evidence,</text><text fill="#0B2942" font-family="Arial" font-size="15" lengthAdjust="spacing" textLength="110.0391" x="689" y="575.9141">artifact manifest,</text><text fill="#0B2942" font-family="Arial" font-size="15" lengthAdjust="spacing" textLength="110.8813" x="689" y="593.1626">versions, locking</text></g><!--entity checker_service--><g class="entity" data-qualified-name="backend.workflow_services.checker_service" data-source-line="46" id="ent0015"><rect fill="#E7F5FF" height="114.2427" rx="4" ry="4" style="stroke:#1C7ED6;stroke-width:0.5;" width="127.5488" x="1153" y="812.0986"/><text fill="#0B2942" font-family="Arial" font-size="15" lengthAdjust="spacing" textLength="55.8545" x="1163" y="836.1685">Checker</text><text fill="#0B2942" font-family="Arial" font-size="15" lengthAdjust="spacing" textLength="50.0171" x="1163" y="853.417">Service</text><line style="stroke:#1C7ED6;stroke-width:1;" x1="1154" x2="1279.5488" y1="856.5957" y2="856.5957"/><text fill="#0B2942" font-family="Arial" font-size="15" lengthAdjust="spacing" textLength="93.3691" x="1163" y="874.6655">Checker runs,</text><text fill="#0B2942" font-family="Arial" font-size="15" lengthAdjust="spacing" textLength="107.5488" x="1163" y="891.9141">blocking results,</text><text fill="#0B2942" font-family="Arial" font-size="15" lengthAdjust="spacing" textLength="103.3813" x="1163" y="909.1626">pre-review gate</text></g><!--entity review_service--><g class="entity" data-qualified-name="backend.workflow_services.review_service" data-source-line="47" id="ent0016"><rect fill="#E7F5FF" height="131.4912" rx="4" ry="4" style="stroke:#1C7ED6;stroke-width:0.5;" width="143.8013" x="1145" y="645.5986"/><text fill="#0B2942" font-family="Arial" font-size="15" lengthAdjust="spacing" textLength="123.8013" x="1155" y="669.6685">Review + Revision</text><text fill="#0B2942" font-family="Arial" font-size="15" lengthAdjust="spacing" textLength="50.0171" x="1155" y="686.917">Service</text><line style="stroke:#1C7ED6;stroke-width:1;" x1="1146" x2="1287.8013" y1="690.0957" y2="690.0957"/><text fill="#0B2942" font-family="Arial" font-size="15" lengthAdjust="spacing" textLength="48.3618" x="1155" y="708.1655">accept,</text><text fill="#0B2942" font-family="Arial" font-size="15" lengthAdjust="spacing" textLength="105.0659" x="1155" y="725.4141">needs_revision,</text><text fill="#0B2942" font-family="Arial" font-size="15" lengthAdjust="spacing" textLength="100.8838" x="1155" y="742.6626">reject, findings,</text><text fill="#0B2942" font-family="Arial" font-size="15" lengthAdjust="spacing" textLength="96.709" x="1155" y="759.9111">revision replay</text></g><!--entity ledger_service--><g class="entity" data-qualified-name="backend.workflow_services.ledger_service" data-source-line="48" id="ent0017"><rect fill="#E7F5FF" height="114.2427" rx="4" ry="4" style="stroke:#1C7ED6;stroke-width:0.5;" width="206.7236" x="1113.5" y="496.0986"/><text fill="#0B2942" font-family="Arial" font-size="15" lengthAdjust="spacing" textLength="89.2163" x="1123.5" y="520.1685">Contribution /</text><text fill="#0B2942" font-family="Arial" font-size="15" lengthAdjust="spacing" textLength="96.7236" x="1123.5" y="537.417">Compensation</text><text fill="#0B2942" font-family="Arial" font-size="15" lengthAdjust="spacing" textLength="50.0171" x="1123.5" y="554.6655">Service</text><line style="stroke:#1C7ED6;stroke-width:1;" x1="1114.5" x2="1319.2236" y1="557.8442" y2="557.8442"/><text fill="#0B2942" font-family="Arial" font-size="15" lengthAdjust="spacing" textLength="186.7236" x="1123.5" y="575.9141">Reviewer/submitter records,</text><text fill="#0B2942" font-family="Arial" font-size="15" lengthAdjust="spacing" textLength="108.3765" x="1123.5" y="593.1626">award fulfillment</text></g><!--entity lifecycle--><g class="entity" data-qualified-name="backend.shared_rules.lifecycle" data-source-line="52" id="ent0019"><rect fill="#E7F5FF" height="96.9941" rx="4" ry="4" style="stroke:#1C7ED6;stroke-width:0.5;" width="167.561" x="1133" y="139.5986"/><text fill="#0B2942" font-family="Arial" font-size="15" lengthAdjust="spacing" textLength="58.3594" x="1143" y="163.6685">Lifecycle</text><text fill="#0B2942" font-family="Arial" font-size="15" lengthAdjust="spacing" textLength="49.1895" x="1143" y="180.917">Guards</text><line style="stroke:#1C7ED6;stroke-width:1;" x1="1134" x2="1299.561" y1="184.0957" y2="184.0957"/><text fill="#0B2942" font-family="Arial" font-size="15" lengthAdjust="spacing" textLength="113.4009" x="1143" y="202.1655">Allowed task and</text><text fill="#0B2942" font-family="Arial" font-size="15" lengthAdjust="spacing" textLength="147.561" x="1143" y="219.4141">submission transitions</text></g><!--entity audit_service--><g class="entity" data-qualified-name="backend.shared_rules.audit_service" data-source-line="53" id="ent0020"><rect fill="#E7F5FF" height="96.9941" rx="4" ry="4" style="stroke:#1C7ED6;stroke-width:0.5;" width="126.7065" x="1153.5" y="271.5986"/><text fill="#0B2942" font-family="Arial" font-size="15" lengthAdjust="spacing" textLength="34.1895" x="1163.5" y="295.6685">Audit</text><text fill="#0B2942" font-family="Arial" font-size="15" lengthAdjust="spacing" textLength="50.0171" x="1163.5" y="312.917">Service</text><line style="stroke:#1C7ED6;stroke-width:1;" x1="1154.5" x2="1279.2065" y1="316.0957" y2="316.0957"/><text fill="#0B2942" font-family="Arial" font-size="15" lengthAdjust="spacing" textLength="84.2285" x="1163.5" y="334.1655">Append-only</text><text fill="#0B2942" font-family="Arial" font-size="15" lengthAdjust="spacing" textLength="106.7065" x="1163.5" y="351.4141">workflow events</text></g><!--entity repositories--><g class="entity" data-qualified-name="backend.persistence.repositories" data-source-line="57" id="ent0022"><rect fill="#E6FCF5" height="114.2427" rx="4" ry="4" style="stroke:#1C7ED6;stroke-width:0.5;" width="160.0537" x="1137" y="1396.0986"/><text fill="#0B2942" font-family="Arial" font-size="15" lengthAdjust="spacing" textLength="83.3716" x="1147" y="1420.1685">Repositories</text><line style="stroke:#1C7ED6;stroke-width:1;" x1="1138" x2="1296.0537" y1="1423.3472" y2="1423.3472"/><text fill="#0B2942" font-family="Arial" font-size="15" lengthAdjust="spacing" textLength="86.6968" x="1147" y="1441.417">Project, task,</text><text fill="#0B2942" font-family="Arial" font-size="15" lengthAdjust="spacing" textLength="140.0537" x="1147" y="1458.6655">submission, checker,</text><text fill="#0B2942" font-family="Arial" font-size="15" lengthAdjust="spacing" textLength="97.5439" x="1147" y="1475.9141">review, ledger,</text><text fill="#0B2942" font-family="Arial" font-size="15" lengthAdjust="spacing" textLength="113.4009" x="1147" y="1493.1626">audit persistence</text></g><!--entity auth_port--><g class="entity" data-qualified-name="backend.ports.auth_port" data-source-line="61" id="ent0024"><rect fill="#FFF3BF" height="54.4971" rx="4" ry="4" style="stroke:#1C7ED6;stroke-width:0.5;" width="102.5366" x="1165.5" y="1215.0986"/><text fill="#0B2942" font-family="Arial" font-size="15" lengthAdjust="spacing" textLength="82.5366" x="1175.5" y="1239.1685">Auth Verifier</text><text fill="#0B2942" font-family="Arial" font-size="15" lengthAdjust="spacing" textLength="58.3667" x="1175.5" y="1256.417">Interface</text></g><!--entity flow_adapter--><g class="entity" data-qualified-name="backend.ports.flow_adapter" data-source-line="62" id="ent0025"><rect fill="#FFF3BF" height="54.4971" rx="4" ry="4" style="stroke:#1C7ED6;stroke-width:0.5;" width="86.6943" x="1173.5" y="1126.0986"/><text fill="#0B2942" font-family="Arial" font-size="15" lengthAdjust="spacing" textLength="66.6943" x="1183.5" y="1150.1685">Flow Auth</text><text fill="#0B2942" font-family="Arial" font-size="15" lengthAdjust="spacing" textLength="52.5366" x="1183.5" y="1167.417">Adapter</text></g><!--entity storage_port--><g class="entity" data-qualified-name="backend.ports.storage_port" data-source-line="63" id="ent0026"><rect fill="#FFF3BF" height="37.2485" rx="4" ry="4" style="stroke:#1C7ED6;stroke-width:0.5;" width="104.2139" x="1165" y="1053.5986"/><text fill="#0B2942" font-family="Arial" font-size="15" lengthAdjust="spacing" textLength="84.2139" x="1175" y="1077.6685">Storage Port</text></g><!--entity storage_adapter--><g class="entity" data-qualified-name="backend.ports.storage_adapter" data-source-line="64" id="ent0027"><rect fill="#FFF3BF" height="54.4971" rx="4" ry="4" style="stroke:#1C7ED6;stroke-width:0.5;" width="112.5635" x="1541" y="1215.0986"/><text fill="#0B2942" font-family="Arial" font-size="15" lengthAdjust="spacing" textLength="92.5635" x="1551" y="1239.1685">Local Storage</text><text fill="#0B2942" font-family="Arial" font-size="15" lengthAdjust="spacing" textLength="52.5366" x="1551" y="1256.417">Adapter</text></g><!--entity checker_runner--><g class="entity" data-qualified-name="backend.ports.checker_runner" data-source-line="65" id="ent0028"><rect fill="#FFF3BF" height="54.4971" rx="4" ry="4" style="stroke:#1C7ED6;stroke-width:0.5;" width="129.2188" x="1533" y="1126.0986"/><text fill="#0B2942" font-family="Arial" font-size="15" lengthAdjust="spacing" textLength="109.2188" x="1543" y="1150.1685">Checker Runner</text><text fill="#0B2942" font-family="Arial" font-size="15" lengthAdjust="spacing" textLength="52.5366" x="1543" y="1167.417">Adapter</text></g><!--entity client--><g class="entity" data-qualified-name="client" data-source-line="29" id="ent0001"><rect fill="#F1F3F5" height="54.4971" rx="4" ry="4" style="stroke:#1C7ED6;stroke-width:0.5;" width="86.6943" x="7" y="1077.0986"/><text fill="#0B2942" font-family="Arial" font-size="15" lengthAdjust="spacing" textLength="66.687" x="17" y="1101.1685">React UI /</text><text fill="#0B2942" font-family="Arial" font-size="15" lengthAdjust="spacing" textLength="66.6943" x="17" y="1118.417">API Client</text></g><!--entity flow_auth--><g class="entity" data-qualified-name="flow_auth" data-source-line="30" id="ent0002"><path d="M1557.8771,1609.887 C1561.5389,1602.8871 1565.7633,1602.9075 1570.4591,1608.8844 C1572.6001,1600.6442 1580.1925,1599.8034 1585.3354,1605.7328 C1588.6008,1599.8713 1592.9318,1599.3329 1597.4441,1604.3442 C1602.4031,1598.2339 1607.7035,1598.8746 1611.6109,1605.5127 C1616.7564,1600.946 1621.0665,1600.2214 1624.3247,1607.5327 C1630.2025,1601.0507 1636.6593,1602.7555 1639.3494,1610.8241 C1645.2688,1612.6872 1647.017,1616.2514 1643.2044,1621.5969 C1650.4629,1622.7869 1652.3777,1629.3199 1647.5616,1634.5665 C1652.1159,1640.346 1649.8162,1645.8849 1642.6478,1647.0501 C1647.075,1652.6749 1644.6549,1656.6722 1638.4414,1658.3284 C1635.4194,1665.4099 1630.5793,1665.852 1626.1922,1659.5807 C1623.4768,1667.6659 1616.0944,1667.4627 1611.5644,1661.4655 C1609.0501,1667.6912 1604.5844,1670.3682 1599.0299,1664.6582 C1593.6491,1670.8519 1587.9441,1669.8428 1585.459,1661.8819 C1580.7773,1667.1691 1573.9355,1667.4087 1571.6176,1659.4178 C1567.9645,1665.36 1561.1965,1665.8387 1557.2861,1659.7235 C1550.9426,1656.843 1550.8547,1651.7719 1555.4692,1647.2901 C1547.7036,1644.9996 1546.0757,1640.5584 1550.3404,1633.7208 C1545.6968,1627.8213 1548.2157,1622.5823 1555.2335,1621.2631 C1550.9734,1616.4643 1551.7004,1612.2605 1557.8771,1609.887" fill="#F1F3F5" style="stroke:#868E96;stroke-width:0.5;"/><text fill="#212529" font-family="Arial" font-size="15" lengthAdjust="spacing" textLength="55.0269" x="1564" y="1630.1685">External</text><text fill="#212529" font-family="Arial" font-size="15" lengthAdjust="spacing" textLength="66.6943" x="1564" y="1647.417">Flow Auth</text></g><!--entity postgres--><g class="entity" data-qualified-name="postgres" data-source-line="31" id="ent0003"><path d="M1530.5,1825.5986 C1530.5,1815.5986 1597.6216,1815.5986 1597.6216,1815.5986 C1597.6216,1815.5986 1664.7432,1815.5986 1664.7432,1825.5986 L1664.7432,1877.0957 C1664.7432,1887.0957 1597.6216,1887.0957 1597.6216,1887.0957 C1597.6216,1887.0957 1530.5,1887.0957 1530.5,1877.0957 L1530.5,1825.5986" fill="#E6FCF5" style="stroke:#0CA678;stroke-width:0.5;"/><path d="M1530.5,1825.5986 C1530.5,1835.5986 1597.6216,1835.5986 1597.6216,1835.5986 C1597.6216,1835.5986 1664.7432,1835.5986 1664.7432,1825.5986" fill="none" style="stroke:#0CA678;stroke-width:0.5;"/><text fill="#063B2C" font-family="Arial" font-size="15" lengthAdjust="spacing" textLength="59.1943" x="1540.5" y="1853.6685">Postgres</text><path d="M1530.5,1851.8472 C1530.5,1861.8472 1597.6216,1861.8472 1597.6216,1861.8472 C1597.6216,1861.8472 1664.7432,1861.8472 1664.7432,1851.8472" fill="none" style="stroke:#0CA678;stroke-width:1;"/><text fill="#063B2C" font-family="Arial" font-size="15" lengthAdjust="spacing" textLength="114.2432" x="1540.5" y="1874.917">Record database</text></g><!--entity file_store--><g class="entity" data-qualified-name="file_store" data-source-line="32" id="ent0004"><rect fill="#E6FCF5" height="79.7456" rx="4" ry="4" style="stroke:#1C7ED6;stroke-width:0.5;" width="116.709" x="1539" y="1700.0986"/><text fill="#0B2942" font-family="Arial" font-size="15" lengthAdjust="spacing" textLength="64.1895" x="1549" y="1724.1685">File Store</text><line style="stroke:#1C7ED6;stroke-width:1;" x1="1540" x2="1654.709" y1="1727.3472" y2="1727.3472"/><text fill="#0B2942" font-family="Arial" font-size="15" lengthAdjust="spacing" textLength="90.9009" x="1549" y="1745.417">Evidence and</text><text fill="#0B2942" font-family="Arial" font-size="15" lengthAdjust="spacing" textLength="96.709" x="1549" y="1762.6655">artifact objects</text></g><!--link client to http_boundary--><g class="link" data-entity-1="ent0001" data-entity-2="ent0006" data-link-type="dependency" data-source-line="69" id="lnk29"><path d="M94.27,1104.0986 C134.895,1104.0986 197.48,1104.0986 250.5663,1104.0986 C252.2252,1104.0986 253.8749,1104.0986 255.5143,1104.0986 C255.9242,1104.0986 251.3334,1104.0986 251.7419,1104.0986" fill="none" id="client-to-http_boundary" style="stroke:#495057;stroke-width:1.1;"/><polygon fill="#495057" points="256.7419,1104.0986,247.7419,1100.0986,251.7419,1104.0986,247.7419,1108.0986,256.7419,1104.0986" style="stroke:#495057;stroke-width:1.1;stroke-linejoin:miter;stroke-miterlimit:10;"/><text fill="#000000" font-family="Arial" font-size="15" lengthAdjust="spacing" textLength="83.335" x="125" y="1100.1685">HTTP/JSON</text></g><!--link http_boundary to workflow_services--><g class="link" data-entity-1="ent0006" data-entity-2="ent0011" data-link-type="dependency" data-source-line="70" id="lnk30"><path d="M412.4997,1076.0684 C412.8409,1075.9191 413.1827,1075.7696 413.5249,1075.6202 C414.8938,1075.0224 416.27,1074.4241 417.6519,1073.8264 C428.7069,1069.0449 440.1225,1064.2986 451,1060.0986 C515.465,1035.2086 589.1475,1010.8361 647.3575,992.5024 C676.4625,983.3355 701.6994,975.6783 719.9819,970.221 C721.1245,969.8799 717.4478,970.9739 718.5354,970.6501" fill="none" id="http_boundary-to-workflow_services" style="stroke:#495057;stroke-width:1.1;"/><polygon fill="#495057" points="723.3276,969.2237,713.5605,967.9575,718.5354,970.6501,715.8428,975.6251,723.3276,969.2237" style="stroke:#495057;stroke-width:1.1;stroke-linejoin:miter;stroke-miterlimit:10;"/><text fill="#000000" font-family="Arial" font-size="15" lengthAdjust="spacing" textLength="163.4106" x="452" y="1000.1685">route to domain services</text></g><!--link http_boundary to ports--><g class="link" data-entity-1="ent0006" data-entity-2="ent0023" data-link-type="dependency" data-source-line="71" id="lnk31"><path d="M854.1881,1119.0819 C855.9032,1119.6165 857.6139,1120.1585 859.32,1120.7082 C862.7321,1121.8076 866.1259,1122.9375 869.5,1124.0986 C985.26,1163.9386 979.71,1238.6986 1093,1285.0986 C1105.5975,1290.2586 1119.4438,1294.0299 1133.1613,1296.7833 C1134.8759,1297.1275 1136.5886,1297.4558 1138.2966,1297.7689 C1139.1506,1297.9254 1135.0783,1297.2159 1135.9296,1297.3649" fill="none" id="http_boundary-to-ports" style="stroke:#495057;stroke-width:1.1;"/><polygon fill="#495057" points="1140.8547,1298.2272,1132.6794,1292.735,1135.9296,1297.3649,1131.2997,1300.6151,1140.8547,1298.2272" style="stroke:#495057;stroke-width:1.1;stroke-linejoin:miter;stroke-miterlimit:10;"/><text fill="#000000" font-family="Arial" font-size="15" lengthAdjust="spacing" textLength="73.3521" x="715.5" y="1082.1685">verify actor</text></g><!--link workflow_services to shared_rules--><g class="link" data-entity-1="ent0011" data-entity-2="ent0018" data-link-type="dependency" data-source-line="73" id="lnk32"><path d="M1124.7733,452.0661 C1126.4197,450.8683 1128.0773,449.6907 1129.7425,448.5336 C1143.0644,439.2768 1156.88,431.3286 1169.4475,424.8211 C1175.7312,421.5674 1181.703,418.6738 1187.1449,416.1568 C1189.8659,414.8984 1192.4544,413.734 1194.8833,412.6659 C1195.1869,412.5324 1195.488,412.4004 1195.7866,412.2699 C1195.8612,412.2373 1191.3531,414.2048 1191.4275,414.1723" fill="none" id="workflow_services-to-shared_rules" style="stroke:#495057;stroke-width:1.1;"/><polygon fill="#495057" points="1196.01,412.1723,1186.1614,412.1062,1191.4275,414.1723,1189.3614,419.4384,1196.01,412.1723" style="stroke:#495057;stroke-width:1.1;stroke-linejoin:miter;stroke-miterlimit:10;"/><text fill="#000000" font-family="Arial" font-size="15" lengthAdjust="spacing" textLength="156.7456" x="902.5" y="497.1685">state, audit, policy rules</text></g><!--link workflow_services to persistence--><g class="link" data-entity-1="ent0011" data-entity-2="ent0021" data-link-type="dependency" data-source-line="74" id="lnk33"><path d="M770.1186,969.2657 C770.2541,969.3344 770.3902,969.4035 770.527,969.4731 C770.8005,969.6122 771.0766,969.7529 771.3551,969.8953 C771.9122,970.18 772.4791,970.4712 773.0555,970.7688 C775.3609,971.9593 777.8176,973.2526 780.3996,974.6448 C785.5636,977.4292 791.2288,980.6089 797.1875,984.1524 C821.0225,998.3261 849.555,1018.3186 869.5,1042.0986 C1021.76,1223.6386 903.77,1383.5186 1093,1526.0986 C1098.4363,1530.1949 1104.397,1533.5707 1110.6709,1536.3413 C1111.0631,1536.5144 1111.4564,1536.6852 1111.8509,1536.8537 C1112.0482,1536.9379 1107.6356,1535.0859 1107.8334,1535.169" fill="none" id="workflow_services-to-persistence" style="stroke:#495057;stroke-width:1.1;"/><polygon fill="#495057" points="1112.4436,1537.1046,1105.6939,1529.9323,1107.8334,1535.169,1102.5968,1537.3085,1112.4436,1537.1046" style="stroke:#495057;stroke-width:1.1;stroke-linejoin:miter;stroke-miterlimit:10;"/><text fill="#000000" font-family="Arial" font-size="15" lengthAdjust="spacing" textLength="120.0439" x="920.5" y="1049.1685">read/write records</text></g><!--link workflow_services to ports--><g class="link" data-entity-1="ent0011" data-entity-2="ent0023" data-link-type="dependency" data-source-line="75" id="lnk34"><path d="M958.4686,969.1358 C977.1729,971.36 995.2505,974.1493 1011.7241,977.6404 C1044.6712,984.6224 1071.2025,994.4111 1083.5,1008.0986 C1104.08,1031.0086 1072.56,1262.0686 1093,1285.0986 C1102.0375,1295.2786 1114.0763,1301.5986 1127.0917,1305.3421 C1130.3456,1306.2779 1133.6605,1307.0528 1137.0048,1307.6866 C1137.8409,1307.8451 1138.6788,1307.9947 1139.5181,1308.1359 C1139.9377,1308.2064 1135.4189,1307.4949 1135.8391,1307.5613" fill="none" id="workflow_services-to-ports" style="stroke:#495057;stroke-width:1.1;"/><polygon fill="#495057" points="1140.7779,1308.3413,1132.5121,1302.9863,1135.8391,1307.5613,1131.2641,1310.8884,1140.7779,1308.3413" style="stroke:#495057;stroke-width:1.1;stroke-linejoin:miter;stroke-miterlimit:10;"/><text fill="#000000" font-family="Arial" font-size="15" lengthAdjust="spacing" textLength="204.2944" x="878.5" y="959.1685">storage and checker execution</text></g><!--link ports to flow_auth--><g class="link" data-entity-1="ent0023" data-entity-2="ent0002" data-link-type="dependency" data-source-line="77" id="lnk35"><path d="M1238.0436,1312.258 C1238.3596,1312.3926 1238.6786,1312.5287 1239.0006,1312.6664 C1239.6445,1312.9417 1240.3004,1313.2232 1240.9678,1313.5107 C1243.6374,1314.6607 1246.4911,1315.9073 1249.5023,1317.2458 C1255.5248,1319.9228 1262.1775,1322.9671 1269.2475,1326.3399 C1297.5275,1339.8311 1332.485,1358.5786 1360.5,1380.0986 C1448.38,1447.6086 1529.1053,1545.268 1569.0553,1596.768" fill="none" id="ports-to-flow_auth" style="stroke:#495057;stroke-width:1.1;"/><polygon fill="#495057" points="1572.12,1600.7186,1569.7642,1591.1557,1569.0553,1596.768,1563.4431,1596.0591,1572.12,1600.7186" style="stroke:#495057;stroke-width:1.1;stroke-linejoin:miter;stroke-miterlimit:10;"/><text fill="#000000" font-family="Arial" font-size="15" lengthAdjust="spacing" textLength="76.6992" x="1396.5" y="1388.1685">verify token</text></g><!--link ports to file_store--><g class="link" data-entity-1="ent0023" data-entity-2="ent0004" data-link-type="dependency" data-source-line="78" id="lnk36"><path d="M1253.2783,1312.2673 C1253.6962,1312.3893 1254.1164,1312.5128 1254.539,1312.6379 C1261.2995,1314.6396 1268.6472,1317.048 1276.2663,1319.9186 C1306.7425,1331.4011 1341.56,1350.2786 1360.5,1380.0986 C1379.23,1409.5886 1353.49,1505.5486 1368.5,1537.0986 C1404.76,1613.3086 1479.9058,1670.5993 1534.7258,1705.0293" fill="none" id="ports-to-file_store" style="stroke:#495057;stroke-width:1.1;"/><polygon fill="#495057" points="1538.96,1707.6886,1533.4659,1699.5146,1534.7258,1705.0293,1529.2111,1706.2892,1538.96,1707.6886" style="stroke:#495057;stroke-width:1.1;stroke-linejoin:miter;stroke-miterlimit:10;"/><text fill="#000000" font-family="Arial" font-size="15" lengthAdjust="spacing" textLength="124.2188" x="1372.5" y="1533.1685">store/read artifacts</text></g><!--link persistence to postgres--><g class="link" data-entity-1="ent0021" data-entity-2="ent0003" data-link-type="dependency" data-source-line="79" id="lnk37"><path d="M1220.1399,1553.2197 C1220.1835,1553.3776 1220.2278,1553.5377 1220.2727,1553.6998 C1220.3626,1554.0242 1220.4553,1554.3569 1220.5506,1554.698 C1222.0764,1560.155 1224.3006,1567.7379 1227.2619,1576.9229 C1233.1844,1595.2927 1242.055,1620.0705 1254.1825,1647.0649 C1278.4375,1701.0536 1315.72,1763.9086 1368.5,1802.0986 C1415.57,1836.1586 1476.5216,1847.0887 1525.3916,1850.4187" fill="none" id="persistence-to-postgres" style="stroke:#495057;stroke-width:1.1;"/><polygon fill="#495057" points="1530.38,1850.7586,1521.6728,1846.156,1525.3916,1850.4187,1521.1289,1854.1375,1530.38,1850.7586" style="stroke:#495057;stroke-width:1.1;stroke-linejoin:miter;stroke-miterlimit:10;"/><text fill="#000000" font-family="Arial" font-size="15" lengthAdjust="spacing" textLength="130.8838" x="1369.5" y="1798.1685">SQLAlchemy async</text></g><?plantuml-src XLTBSnit3Bxlh-0unwnZouwVXyx8iZTDnqqLoKqlcj5Gkv34cYAt95UAsib_By27l7grEjWMI00VFhne9vm4zeSshzOPu0ksFF_GOG-yV0LLiPvUr5g1SkoRW5MMIPWwvZGpOZPth186IYUqoZBxAbJD3UfFK7LcTAEgdfRQi7U5_xHks3clz4ge6PjoQQ5rujLARHGOTjkILp3bZNI5LkuBNm3h6i7buVEX-1jOvwfrs3L6hoAMZtTNvrStkuSlSr6-Ah2MTJvqMeSrXi9dC7Hhf8X2vMecj_0c6VidO-n1cmfCzDJftJmzNfDqbu-dc-8A-M2Cu4RP-SF5tSUBx4Sx9kxuXDi3fizxtUkRsuEchujUSRLZ-lhouQAtPRgKkgdsxTvUtpxT7OHST8hBNRiNdOkhYpkqcxsnS380NZhs-sTsDbBT_cVMamABvuHnYqxfpusjWE7awRi3exWSgKBg5UisRkvlJ_7RcEEtRCF3ILzRDpDWH-eKFoCr02oLQaEKrwlZdJQeGk3FeTC6akRJKbIWIc1SLIF5ZHDJmgqdVwAM3G1GQMn9QKDh5ki1BNBhABpK9gViLrqraXlyhRGKCOX9F7vNt1OFHU4PtzZu-UMbpzxxY34Do3KtQwyrTwuUJw84dJyM5r6NjGhkXFmFT8FqfQYyHQtaUgGC_DM0TUpq9sR1B4M9eGEMkY49qeDD7GdZjHWRRsRNGQynXZBMBP65aNg46cD1rjR9tpSmOYgWme60OQBbaIgvqagKN39EMY7nmSxOItQTzC4iXBKuGqQgZyoLuYs_ps89p9QwHXSpmvN34qmOW--KB8n2DwQ4aAvwOyVkkLXNg2lAaHgMSrZmLlruaiuI7mWVozlmL08sN4TxMEIjpD6mfFfamq1jkBsAqd4atAPEtqzTtsWgDFQfmJ94M2b30LOyjJcRqRdD4TSSi98C8btY6FQ_0cLrf2nm41GJW5slBzo-igyDDFik_L4A7ltPqW0edD0v6f20pKKW91UB71rPCLCBp2XTTDm1ukIc2XWSMZe6ODXCDhdUZPawXKA6s9bvgoqNN8af9WfbIp0-npcJkiHvDWk9sXW-vheN2Dpp6-NCD8fudaIhL5ouJqXK6pWDjBCPnXegEcWTSpO8rz-pmIPFEsvvMK9DyIY0oevJFdDgN4fXZkD7LGZ4Ub4uHHUrv65614H7ewLCYab3gvacCMrnK9QxGrW2MYmkpw9pn8OVhEIRhp2pRDf878ToaKQvX6gs5VvsVmpdt63BFke55ueD6Xdhqthvs93W-5nxnboNwr8Ym4--hXBGhiJkecb3nUe7zrlU6LQkie823Bvaih8tDfjAk3qIkZKDjzCmF5CdOp5YnC4U9xMZ4VUfBAtpAsLhbjUjWxX6zYCU06ujWSEnDVlY4CXzj7axr3oLNomDMEKn8PGlWjds6glbpK7haR0TGzh4hA-DixIPAbwZACuMBwIttEN3eML4Mopk0-oopmeLiNVZYi73CHb8-hlQczMFYGXEMs-083YcIckTu1FeK6H1y9_-dZLjgAYwxJEf_u_RD3S63RQmsJQHfeFnPoqBF-Yn59z1fxY7jnVzFQFzVVRByBSlsVO9tTtVBlVChsrwZLUXqzBH0VMGldksf1IjmtBEidsZT7UhJU-P7_5vQ82S-OMpPlxmY7wxvX4ayEfiPOI3D5QEgKM8CGFKuObAtFXGDk4VZN2D53PFnBUu_4EaVUNj4HSCmndXOMcrsAmDDg08xqUyF_pwt9Nq142-x5gLsRy0?></g></svg>